<svg xmlns="http://www.w3.org/2000/svg" height="91" width="91" xmlns:v="https://vecta.io/nano"><path d="M36.891 31.362h30.602v3.4H36.891zm0 13.6h30.602v3.4H36.891zm0 13.6h30.602v3.4H36.891zm-9.297-22.1a3.4 3.4 0 0 0 3.398-3.4 3.4 3.4 0 0 0-3.398-3.399h-.02c-1.877 0-3.391 1.522-3.391 3.399a3.41 3.41 0 0 0 3.411 3.4zm0 13.6a3.4 3.4 0 0 0 3.398-3.399 3.4 3.4 0 0 0-3.398-3.399h-.02c-1.877 0-3.391 1.521-3.391 3.399a3.41 3.41 0 0 0 3.411 3.399zm0 13.6a3.4 3.4 0 0 0 3.398-3.399 3.4 3.4 0 0 0-3.398-3.4h-.02c-1.877 0-3.391 1.521-3.391 3.4a3.41 3.41 0 0 0 3.411 3.399z"/></svg>